<svg width="173" height="52" viewBox="0 0 173 52" fill="none" xmlns="http://www.w3.org/2000/svg">
<path d="M114.395 15.241V30.9195C114.395 32.5456 114.461 34.4315 115.567 35.8627C116.412 36.9688 117.908 37.7486 119.73 37.7486C121.552 37.7486 123.047 36.9688 123.893 35.8627C124.999 34.4319 125.064 32.5456 125.064 30.9195V15.241H131.439V31.1144C131.439 34.6265 131.049 37.5529 128.512 40.091C126.04 42.5632 122.657 43.4744 119.6 43.4744C116.802 43.4744 113.42 42.6281 110.948 40.091C108.41 37.5537 108.021 34.6265 108.021 31.1144V15.241H114.395ZM173 30.4629H153.354C153.485 32.4163 154.331 34.6265 155.697 35.9927C157.194 37.4893 159.015 37.7481 160.577 37.7481C162.332 37.7481 163.633 37.3587 164.936 36.382C165.973 35.5643 166.835 34.5473 167.472 33.3908L172.806 36.382C171.634 38.4638 169.944 40.2868 168.186 41.3919C165.976 42.8227 163.048 43.4737 160.122 43.4737C156.478 43.4737 153.485 42.5616 150.883 39.9604C148.281 37.3593 146.85 33.5845 146.85 29.4882C146.85 25.2593 148.347 21.1609 151.209 18.233C153.485 15.9575 156.478 14.526 160.381 14.526C164.74 14.526 167.538 16.4121 169.162 18.1029C172.675 21.7466 173 26.8217 173 29.6846L173 30.4629ZM166.496 25.2584C166.265 23.8441 165.58 22.5433 164.544 21.5525C163.698 20.7696 162.332 19.9908 160.25 19.9908C158.04 19.9908 156.608 20.9001 155.762 21.7462C154.85 22.5925 154.135 23.8935 153.811 25.2595L166.496 25.2584ZM64.7673 8.71506V14.9613H71.1423V8.71667L64.7673 8.71506ZM64.7673 34.8881V45.9473H61.2595L59.0214 51.7847H71.1425V16.2545L64.7673 34.8881ZM22.2933 1.31846V19.1297C20.5471 15.9283 17.2293 13.833 12.9217 13.833C5.0054 13.833 0 19.4788 0 29.0244C0 38.5119 4.94763 44.0998 12.8636 44.0998C17.4616 44.0998 21.0119 41.7131 22.7002 38.2792L23.0497 43.5177H28.5208V1.32079L22.2933 1.31846ZM14.2609 39.0962C9.25517 39.0962 6.22854 35.3129 6.22854 28.9684C6.22854 22.624 9.25517 18.8993 14.2609 18.8993C19.1503 18.8993 22.2933 22.5657 22.2933 28.6199V29.3185C22.2935 35.4295 19.1504 39.0962 14.2609 39.0962ZM136.817 14.2706V32.696L142.904 50.4901V0H136.817V14.2706ZM58.1127 30.4606H38.4672C38.5972 32.4129 39.4435 34.6238 40.8089 35.99C42.3056 37.4861 44.1267 37.7461 45.6885 37.7461C47.4446 37.7461 48.7456 37.356 50.0467 36.3799C51.0838 35.5622 51.9464 34.5447 52.5833 33.3878L57.9176 36.379C56.7465 38.4613 55.056 40.2823 53.2987 41.3885C51.087 42.8193 48.1599 43.4708 45.2327 43.4708C41.5899 43.4708 38.5974 42.5598 35.9955 39.9574C33.3937 37.355 31.9622 33.5818 31.9622 29.4848C31.9622 25.2552 33.4582 21.1582 36.3205 18.2296C38.5972 15.9546 41.5901 14.5238 45.4929 14.5238C49.8517 14.5238 52.6489 16.4098 54.2743 18.1008C57.787 21.7441 58.112 26.8187 58.112 29.6808L58.1127 30.4606ZM51.6079 25.2561C51.3762 23.8416 50.6913 22.5406 49.6563 21.549C48.8107 20.7678 47.4446 19.988 45.3629 19.988C43.1512 19.988 41.7201 20.8978 40.8738 21.7439C39.9617 22.5902 39.2463 23.8913 38.922 25.2561H51.6079ZM108.021 36.6487L96.6332 41.3204C96.6541 41.3204 96.6751 41.3204 96.6964 41.3204C97.7947 41.3256 98.8521 40.9035 99.645 40.1434C100.192 39.6235 100.581 38.9604 100.768 38.2297C103.075 37.8475 104.807 35.8596 104.807 33.5779C104.803 32.5975 104.49 31.6433 103.913 30.8508C104.37 30.3803 104.721 29.818 104.944 29.2013C105.167 28.5845 105.256 27.9274 105.205 27.2736C105.154 26.6198 104.965 25.9842 104.65 25.4091C104.335 24.834 103.901 24.3325 103.377 23.938C103.479 23.5815 103.531 23.2124 103.53 22.8415C103.524 21.8777 103.18 20.9467 102.559 20.21C101.937 19.4732 101.078 18.9772 100.129 18.8081C100.014 18.0147 99.6328 17.2838 99.0487 16.7346C98.5661 16.27 97.9688 15.9418 97.3178 15.7836C97.0932 14.8683 96.5664 14.0554 95.8227 13.4763C95.0791 12.8972 94.1619 12.5858 93.2194 12.5923C92.2492 12.5903 91.3076 12.9207 90.5513 13.5284V12.5923H84.0517V15.9536H79.0976V19.0297H78.3151C76.3072 19.0297 74.0618 20.6637 74.0618 22.8504V30.0782C74.0589 30.8689 74.3042 31.6406 74.763 32.2846C75.2218 32.9286 75.871 33.4124 76.6193 33.668C76.4907 33.9359 76.4239 34.2293 76.4238 34.5265V35.5584C76.4249 36.459 76.7831 37.3224 77.4199 37.9592C78.0567 38.5959 78.9201 38.9541 79.8207 38.9551H80.1605C80.1464 39.0509 80.1394 39.1475 80.1396 39.2443V40.2763C80.1406 41.1768 80.4988 42.0401 81.1356 42.6769C81.7723 43.3137 82.6357 43.6719 83.5362 43.6729H88.5677C89.1743 43.6742 89.7595 43.4493 90.209 43.0421C90.9358 43.7264 91.8975 44.1056 92.8957 44.1014C93.7371 44.1111 94.5584 43.8443 95.2336 43.3421C95.9088 42.8398 96.4005 42.1299 96.6332 41.3213L108.021 36.6487ZM101.528 38.1591C101.109 38.5702 100.544 38.8 99.9566 38.799H83.5371C83.2077 39.331 82.7294 39.7547 82.1615 40.0176C81.5937 40.2804 80.9612 40.3709 80.3424 40.2779V39.2459C80.3423 39.1218 80.3552 38.9979 80.3808 38.8764L80.4066 38.7544H79.8214C78.9744 38.7536 78.1623 38.4168 77.5634 37.8179C76.9644 37.2191 76.6275 36.407 76.6265 35.5601V34.5281C76.6265 34.2241 76.7043 33.9252 76.8525 33.6598L76.9137 33.5511L76.7944 33.514C76.0599 33.2891 75.4173 32.8337 74.9616 32.2153C74.5058 31.5969 74.2612 30.8483 74.2637 30.0802V22.8512C74.2637 20.7799 76.4027 19.2324 78.3151 19.2324H79.2988V16.1562H84.2529V12.7944H90.3483V13.973L90.517 13.8222C91.2601 13.1583 92.2222 12.7923 93.2187 12.7944C94.1262 12.7876 95.0088 13.0908 95.7206 13.6539C96.4324 14.2169 96.9306 15.0061 97.1329 15.8908L97.1463 15.9543L97.2095 15.9686C97.8487 16.1124 98.4363 16.4286 98.9085 16.8828C99.4774 17.4178 99.8415 18.1346 99.938 18.9095L99.9471 18.9838L100.021 18.9965C100.938 19.1431 101.773 19.6102 102.379 20.3146C102.984 21.019 103.32 21.9152 103.327 22.844C103.327 23.2185 103.272 23.591 103.163 23.9493L103.143 24.0171L103.199 24.0595C103.716 24.4367 104.145 24.9218 104.457 25.481C104.768 26.0403 104.955 26.6605 105.003 27.2988C105.051 27.9371 104.961 28.5783 104.737 29.1781C104.513 29.7779 104.162 30.3221 103.708 30.773L103.646 30.8349L103.699 30.905C104.282 31.6753 104.6 32.6141 104.604 33.5804C104.604 35.7852 102.913 37.7037 100.671 38.0435L100.603 38.0534L100.587 38.1201C100.416 38.8379 100.039 39.4906 99.5044 39.999C99.112 40.3715 98.6495 40.6621 98.1438 40.8542C97.638 41.0463 97.0991 41.1359 96.5585 41.1179L96.4773 41.1154L96.4574 41.1937C96.2498 41.977 95.7867 42.6685 95.1416 43.1587C94.4964 43.6489 93.7061 43.9098 92.8958 43.8999C91.9173 43.9042 90.977 43.5201 90.2813 42.832L90.2106 42.7624L101.528 38.1591ZM79.0641 20.5444V27.2356H76.0093V22.8524C76.009 22.5496 76.0685 22.2497 76.1842 21.9699C76.2999 21.6901 76.4695 21.4358 76.6835 21.2216C76.8975 21.0073 77.1516 20.8373 77.4312 20.7213C77.7109 20.6052 78.0107 20.5454 78.3135 20.5453L79.0641 20.5444ZM84.0817 17.467V27.2356H80.6103V17.467H84.0817ZM89.0358 14.1082V25.5619C89.0359 25.7818 88.9927 25.9995 88.9086 26.2026C88.8245 26.4057 88.7012 26.5903 88.5458 26.7457C88.3903 26.9012 88.2058 27.0244 88.0026 27.1085C87.7995 27.1925 87.5818 27.2357 87.362 27.2356H85.5674V14.1082H89.0358ZM89.0358 34.9967V36.5015C89.0357 36.7503 88.9368 36.9889 88.7609 37.1648C88.5849 37.3408 88.3463 37.4396 88.0975 37.4397H79.8221C79.5749 37.44 79.3302 37.3915 79.1017 37.2972C78.8733 37.2028 78.6657 37.0644 78.4908 36.8898C78.3159 36.7152 78.177 36.5078 78.0822 36.2796C77.9874 36.0513 77.9385 35.8067 77.9383 35.5595V34.5276C77.9384 34.4657 77.9508 34.4044 77.9746 34.3474C77.9984 34.2903 78.0333 34.2384 78.0772 34.1948C78.1211 34.1513 78.1732 34.1168 78.2305 34.0934C78.2878 34.07 78.3491 34.0581 78.411 34.0585H88.0972C88.346 34.0585 88.5846 34.1574 88.7605 34.3334C88.9364 34.5093 89.0353 34.7479 89.0354 34.9967H89.0358ZM86.4459 32.3621H77.8557C77.251 32.3616 76.6713 32.1209 76.2441 31.693C75.8169 31.2651 75.5772 30.685 75.5777 30.0804V28.8831H86.1907C86.2606 28.8833 86.3296 28.8991 86.3927 28.9292C86.4558 28.9593 86.5115 29.003 86.5556 29.0573C86.5998 29.1115 86.6314 29.1748 86.6481 29.2427C86.6648 29.3106 86.6662 29.3814 86.6523 29.4499C86.6008 29.7006 86.5757 29.9559 86.5773 30.2118C86.5752 30.7277 86.6786 31.2385 86.8814 31.7129C86.9106 31.7844 86.9218 31.8619 86.9139 31.9388C86.9061 32.0156 86.8795 32.0893 86.8365 32.1534C86.7935 32.2176 86.7354 32.2701 86.6672 32.3065C86.5991 32.3429 86.5231 32.362 86.4459 32.3621ZM89.5083 39.714V41.2188C89.5082 41.4676 89.4093 41.7062 89.2334 41.8821C89.0575 42.058 88.8189 42.1569 88.5701 42.157H83.5375C83.2903 42.1573 83.0455 42.1089 82.817 42.0145C82.5886 41.9202 82.381 41.7818 82.206 41.6072C82.031 41.4326 81.8922 41.2252 81.7974 40.9969C81.7026 40.7687 81.6537 40.524 81.6535 40.2768V39.2449C81.6544 39.1201 81.7046 39.0007 81.7932 38.9128C81.8818 38.8249 82.0016 38.7756 82.1264 38.7757H88.5701C88.8189 38.7758 89.0575 38.8747 89.2334 39.0506C89.4093 39.2266 89.5082 39.4652 89.5083 39.714ZM100.335 31.7504C100.216 31.7504 100.102 31.7032 100.018 31.6191C99.934 31.535 99.8867 31.4209 99.8867 31.302C99.8867 31.183 99.934 31.069 100.018 30.9849C100.102 30.9008 100.216 30.8535 100.335 30.8535C102.193 30.8535 103.705 29.4086 103.705 27.6373C103.705 25.866 102.193 24.4248 100.335 24.4248C100.216 24.4248 100.101 24.3774 100.017 24.2929C99.9323 24.2085 99.8848 24.0939 99.8848 23.9745C99.8848 23.8551 99.9323 23.7405 100.017 23.6561C100.101 23.5716 100.216 23.5242 100.335 23.5242C100.844 23.5224 101.35 23.61 101.829 23.7831C101.953 23.4858 102.016 23.1669 102.017 22.8449C102.017 21.4413 100.857 20.3004 99.4082 20.2516C99.2534 20.7272 98.9826 21.1567 98.6202 21.5014C98.5365 21.5818 98.4247 21.6262 98.3087 21.6252C98.2485 21.6246 98.189 21.612 98.1337 21.5882C98.0784 21.5644 98.0285 21.5297 97.9867 21.4864C97.9456 21.4441 97.9133 21.3941 97.8916 21.3393C97.87 21.2845 97.8593 21.2259 97.8604 21.167C97.8614 21.108 97.8741 21.0499 97.8976 20.9958C97.9212 20.9418 97.9553 20.893 97.9978 20.8522C98.2051 20.6586 98.3704 20.4244 98.4834 20.1642C98.5964 19.904 98.6548 19.6234 98.6548 19.3398C98.6548 19.0561 98.5964 18.7755 98.4834 18.5153C98.3704 18.2551 98.2051 18.0209 97.9978 17.8273C97.565 17.4187 96.9923 17.1911 96.3971 17.1911C95.8019 17.1911 95.2292 17.4187 94.7964 17.8273C94.754 17.8693 94.7037 17.9024 94.6484 17.9247C94.593 17.9471 94.5338 17.9582 94.4742 17.9574C94.4145 17.9566 94.3556 17.944 94.3008 17.9203C94.2461 17.8965 94.1966 17.8621 94.1553 17.8191C94.114 17.776 94.0817 17.7252 94.0602 17.6695C94.0387 17.6138 94.0285 17.5545 94.0302 17.4948C94.0318 17.4352 94.0454 17.3765 94.0699 17.3221C94.0945 17.2677 94.1297 17.2188 94.1733 17.1781C94.6431 16.7297 95.2392 16.4363 95.881 16.3375C95.7796 15.7081 95.4549 15.1363 94.9661 14.7269C94.4774 14.3174 93.8575 14.0979 93.2201 14.1084C91.7378 14.1084 90.5374 15.2605 90.5374 16.6866V23.93H95.9266V21.28C95.6772 21.2186 95.459 21.068 95.3131 20.8566C95.1672 20.6453 95.1038 20.3879 95.1347 20.133C95.1656 19.8781 95.2888 19.6433 95.4811 19.473C95.6733 19.3027 95.9212 19.2087 96.178 19.2087C96.4348 19.2087 96.6827 19.3027 96.8749 19.473C97.0671 19.6433 97.1903 19.8781 97.2212 20.133C97.2522 20.3879 97.1887 20.6453 97.0428 20.8566C96.8969 21.068 96.6787 21.2186 96.4293 21.28V24.4361H90.5365V27.5697H99.4533C99.5151 27.3212 99.6658 27.1039 99.8768 26.9588C100.088 26.8136 100.345 26.7507 100.599 26.7819C100.853 26.813 101.087 26.9361 101.257 27.1279C101.426 27.3197 101.52 27.5669 101.52 27.823C101.52 28.0791 101.426 28.3264 101.257 28.5182C101.087 28.7099 100.853 28.833 100.599 28.8642C100.345 28.8953 100.088 28.8324 99.8768 28.6873C99.6658 28.5422 99.5151 28.3249 99.4533 28.0764H90.5365V31.4652H96.4284V34.6621C96.6767 34.7235 96.8939 34.8736 97.0391 35.0842C97.1842 35.2947 97.2473 35.5512 97.2164 35.805C97.1854 36.0589 97.0626 36.2927 96.8712 36.4622C96.6797 36.6318 96.4328 36.7254 96.1771 36.7254C95.9213 36.7254 95.6744 36.6318 95.483 36.4622C95.2915 36.2927 95.1687 36.0589 95.1378 35.805C95.1068 35.5512 95.1699 35.2947 95.3151 35.0842C95.4602 34.8736 95.6774 34.7235 95.9257 34.6621V31.9718H90.5365V40.3219C90.5584 40.925 90.8104 41.4969 91.2409 41.92C91.6713 42.343 92.2475 42.5852 92.8509 42.5966C93.4544 42.6081 94.0393 42.388 94.4855 41.9815C94.9317 41.5751 95.2053 41.0132 95.25 40.4113C94.8509 40.2406 94.486 39.999 94.173 39.6982C94.1306 39.6573 94.0967 39.6084 94.0732 39.5544C94.0497 39.5004 94.0371 39.4423 94.036 39.3834C94.0339 39.2644 94.0792 39.1495 94.1618 39.0639C94.2444 38.9783 94.3577 38.9291 94.4766 38.927C94.5355 38.926 94.5941 38.9365 94.6489 38.9581C94.7037 38.9797 94.7537 39.0118 94.7961 39.0528C95.3104 39.5372 95.9903 39.807 96.6969 39.807C97.4035 39.807 98.0834 39.5372 98.5977 39.0528C98.843 38.8212 99.0384 38.542 99.1719 38.2322C99.3055 37.9224 99.3744 37.5887 99.3744 37.2513C99.3744 36.914 99.3055 36.5802 99.1719 36.2704C99.0384 35.9607 98.843 35.6815 98.5977 35.4499C98.5138 35.3669 98.4661 35.2542 98.4647 35.1362C98.4634 35.0183 98.5086 34.9045 98.5905 34.8196C98.6724 34.7347 98.7845 34.6855 98.9024 34.6827C99.0204 34.6799 99.1347 34.7236 99.2206 34.8044C99.7714 35.327 100.13 36.0202 100.238 36.7717C101.949 36.6328 103.292 35.2592 103.292 33.5818C103.291 33.1516 103.201 32.7262 103.028 32.3323C102.855 31.9384 102.603 31.5845 102.287 31.2926C101.681 31.5956 101.013 31.7524 100.335 31.7504Z" fill="#CA3604"/>
</svg>
