<svg width="275" height="83" viewBox="0 0 275 83" fill="none" xmlns="http://www.w3.org/2000/svg">
<g clip-path="url(#clip0_1_2007)">
<path d="M181.842 24.2818V49.2586C181.842 51.8492 181.945 54.8535 183.703 57.1338C184.53 58.0776 185.548 58.8339 186.689 59.352C187.83 59.8701 189.069 60.1381 190.322 60.1381C191.574 60.1381 192.813 59.8701 193.954 59.352C195.096 58.8339 196.113 58.0776 196.94 57.1338C198.697 54.8535 198.8 51.8492 198.8 49.2586V24.2818H208.935V49.5719C208.935 55.1674 208.314 59.8308 204.282 63.873C200.353 67.8112 194.976 69.2628 190.116 69.2628C185.668 69.2628 180.292 67.9146 176.363 63.873C172.329 59.8308 171.71 55.1674 171.71 49.5719V24.2818H181.842ZM275 48.5322H243.771C243.979 51.6441 245.322 55.1686 247.495 57.3418C249.874 59.7262 252.768 60.1387 255.25 60.1387C257.743 60.2472 260.194 59.4772 262.179 57.9624C263.828 56.6597 265.199 55.0392 266.212 53.1968L274.69 57.9624C272.917 61.1747 270.398 63.9121 267.346 65.9434C263.833 68.2237 259.178 69.2598 254.527 69.2598C248.735 69.2598 243.977 67.8082 239.841 63.6632C235.706 59.5181 233.429 53.5041 233.429 46.9783C233.429 40.2414 235.808 33.7121 240.358 29.0475C242.258 27.1189 244.532 25.6002 247.039 24.5846C249.546 23.569 252.234 23.0779 254.937 23.1417C261.867 23.1417 266.314 26.1466 268.897 28.8394C274.482 34.6442 274.997 42.7298 274.997 47.2904L275 48.5322ZM264.661 40.2414C264.294 37.9875 263.205 35.9144 261.558 34.3356C259.592 32.677 257.09 31.7934 254.521 31.8502C251.951 31.9069 249.491 32.9002 247.599 34.6441C246.054 36.1753 244.977 38.1174 244.497 40.2414H264.661ZM102.953 13.8866V23.8382H113.087V13.8866H102.953ZM102.953 55.5835V73.2004H97.3767L93.8194 82.4998H113.088V25.8961L102.953 55.5835ZM35.4365 2.10427V30.48C32.6607 25.3795 27.3866 22.0416 20.5405 22.0416C7.95326 22.0416 0 31.036 0 46.2435C0 61.3577 7.86497 70.2601 20.4481 70.2601C27.7571 70.2601 33.4005 66.4582 36.0838 60.9877L36.6397 69.3328H45.3351V2.10427H35.4365ZM22.6661 62.2851C14.7092 62.2851 9.89981 56.2579 9.89981 46.1502C9.89981 36.0426 14.711 30.1087 22.6661 30.1087C30.4386 30.1087 35.4323 35.9505 35.4323 45.5936V46.7069C35.4365 56.4432 30.4404 62.2851 22.6661 62.2851ZM217.483 22.7351V52.0907L227.159 80.4401V-0.000244587H217.483V22.7351ZM92.3746 48.5274H61.1438C61.3502 51.6363 62.6948 55.1602 64.8663 57.3365C67.2453 59.7202 70.1398 60.1339 72.6215 60.1339C75.1136 60.2426 77.5649 59.4726 79.5493 57.9576C81.198 56.6551 82.5691 55.0341 83.5814 53.1908L92.0614 57.9576C90.2883 61.1698 87.77 63.9073 84.719 65.9387C81.2035 68.2184 76.5504 69.2557 71.8973 69.2557C66.1065 69.2557 61.349 67.804 57.2137 63.6584C53.0784 59.5127 50.8025 53.5011 50.8025 46.9777C50.8025 40.2391 53.1804 33.7121 57.7303 29.0463C59.6307 27.1179 61.9044 25.5994 64.4117 24.5839C66.919 23.5684 69.6071 23.0774 72.3107 23.1411C79.2397 23.1411 83.6858 26.1454 86.27 28.8394C91.8538 34.6436 92.3704 42.728 92.3704 47.288L92.3746 48.5274ZM82.0345 40.2361C81.6663 37.9826 80.5776 35.91 78.9324 34.3303C76.9659 32.6719 74.4638 31.7886 71.8943 31.8457C69.3249 31.9028 66.8643 32.8964 64.9731 34.6406C63.4286 36.1717 62.3524 38.113 61.871 40.2361H82.0345ZM153.61 65.8298H153.71C155.456 65.8383 157.137 65.1657 158.397 63.9543C159.266 63.126 159.885 62.0693 160.182 60.9052C161.951 60.6224 163.564 59.7244 164.738 58.3688C165.912 57.0131 166.572 55.2863 166.603 53.4915C166.596 51.9297 166.098 50.4096 165.18 49.1474C165.907 48.3979 166.466 47.5021 166.82 46.5195C167.174 45.5369 167.316 44.49 167.235 43.4484C167.155 42.4067 166.854 41.3942 166.353 40.478C165.852 39.5618 165.162 38.7629 164.329 38.1345C164.491 37.5665 164.573 36.9784 164.573 36.3875C164.562 34.8521 164.016 33.3688 163.028 32.195C162.04 31.0212 160.674 30.231 159.165 29.9616C158.982 28.6977 158.377 27.5334 157.448 26.6583C156.681 25.9181 155.732 25.3953 154.697 25.1433C154.34 23.6853 153.502 22.3906 152.319 21.4685C151.137 20.5464 149.679 20.0507 148.181 20.0614C146.639 20.0584 145.142 20.5848 143.94 21.5531V20.0614H133.607V25.4178H125.733V30.3203H124.489C121.298 30.3203 117.729 32.9235 117.729 36.4073V47.9193C117.724 49.1792 118.114 50.4088 118.844 51.4348C119.573 52.4608 120.606 53.2316 121.795 53.6386C121.591 54.0655 121.485 54.533 121.485 55.0065V56.6507C121.486 58.0853 122.056 59.4606 123.068 60.475C124.08 61.4893 125.453 62.0599 126.884 62.0614H127.424C127.402 62.2141 127.391 62.3682 127.391 62.5224V64.1666C127.393 65.6012 127.962 66.9766 128.974 67.991C129.987 69.0055 131.359 69.5762 132.79 69.5779H140.789C141.753 69.5799 142.683 69.2215 143.397 68.5729C144.553 69.6629 146.082 70.2668 147.669 70.2601C149.006 70.2752 150.312 69.85 151.385 69.0497C152.458 68.2494 153.24 67.1182 153.61 65.8298ZM143.289 68.2363C142.622 68.8911 141.724 69.2572 140.79 69.2557H132.79C131.444 69.2541 130.153 68.7174 129.201 67.7634C128.249 66.8094 127.713 65.5158 127.711 64.1666V62.5224C127.711 62.3248 127.731 62.1276 127.771 61.9341L127.812 61.7392H126.884C125.538 61.7378 124.247 61.2012 123.295 60.2473C122.343 59.2934 121.807 57.9999 121.806 56.6507V55.0065C121.805 54.5223 121.928 54.046 122.163 53.6231L122.261 53.4497L122.071 53.3899C120.903 53.0312 119.882 52.3056 119.158 51.3202C118.433 50.3349 118.044 49.1421 118.048 47.9181V36.4049C118.048 33.1052 121.449 30.6396 124.488 30.6396H126.052V25.737H133.927V20.3831H143.617V22.261L143.885 22.0218C145.066 20.9638 146.596 20.3806 148.18 20.3843C149.622 20.3735 151.025 20.8566 152.157 21.7536C153.288 22.6506 154.08 23.9079 154.402 25.3173L154.423 25.4184L154.524 25.4411C155.54 25.6703 156.473 26.1742 157.224 26.8981C158.128 27.7501 158.707 28.8921 158.86 30.1266L158.875 30.2462L158.994 30.2659C160.452 30.4994 161.78 31.2435 162.743 32.3658C163.705 33.4882 164.239 34.9161 164.25 36.3959C164.251 36.9911 164.163 37.5831 163.99 38.1525L163.956 38.2601L164.047 38.3282C164.869 38.9293 165.551 39.702 166.046 40.593C166.541 41.484 166.837 42.4721 166.914 43.489C166.991 44.5058 166.847 45.5273 166.491 46.4829C166.136 47.4385 165.578 48.3053 164.855 49.0236L164.757 49.1223L164.841 49.2335C165.768 50.4608 166.273 51.9564 166.28 53.4957C166.249 55.2318 165.603 56.9002 164.457 58.2029C163.312 59.5055 161.741 60.3574 160.027 60.6062L159.92 60.6218L159.895 60.7282C159.622 61.8718 159.024 62.9115 158.173 63.7217C157.549 64.315 156.814 64.7781 156.01 65.084C155.206 65.39 154.35 65.5328 153.49 65.504L153.361 65.4998L153.33 65.6248C152.999 66.8723 152.263 67.9737 151.238 68.7546C150.212 69.5355 148.956 69.9513 147.669 69.936C146.113 69.9432 144.618 69.3315 143.512 68.2351L143.4 68.1239L143.289 68.2363ZM125.679 32.7298V43.3898H120.823V36.4067C120.822 35.9242 120.917 35.4463 121.101 35.0003C121.284 34.5544 121.554 34.1491 121.894 33.8076C122.234 33.4661 122.638 33.1952 123.083 33.0102C123.528 32.8253 124.004 32.73 124.486 32.7298H125.679ZM133.655 27.8272V43.3898H128.137V27.8272H133.655ZM141.529 22.4762V40.7233C141.53 41.0735 141.461 41.4204 141.327 41.7439C141.194 42.0675 140.998 42.3616 140.75 42.6092C140.503 42.8568 140.21 43.0532 139.887 43.1872C139.564 43.3211 139.218 43.39 138.869 43.3898H136.017V22.4762H141.529ZM141.529 55.7539V58.1514C141.529 58.5478 141.372 58.9279 141.093 59.2083C140.813 59.4886 140.434 59.646 140.038 59.646H126.884C126.491 59.6464 126.102 59.5693 125.739 59.4189C125.376 59.2686 125.046 59.0481 124.768 58.77C124.49 58.4918 124.269 58.1615 124.118 57.7979C123.967 57.4343 123.89 57.0444 123.889 56.6507V55.0065C123.89 54.908 123.909 54.8104 123.947 54.7194C123.985 54.6285 124.041 54.5459 124.11 54.4765C124.18 54.4071 124.263 54.3521 124.354 54.3148C124.445 54.2776 124.543 54.2586 124.641 54.2592H140.038C140.434 54.2592 140.813 54.4167 141.093 54.697C141.372 54.9773 141.529 55.3575 141.529 55.7539ZM137.413 51.5568H123.758C123.282 51.5564 122.811 51.4621 122.371 51.2792C121.932 51.0963 121.533 50.8284 121.196 50.4909C120.86 50.1533 120.593 49.7527 120.412 49.3119C120.23 48.8711 120.137 48.3987 120.137 47.9217V46.0145H137.008C137.119 46.0148 137.228 46.0399 137.329 46.0878C137.429 46.1358 137.517 46.2055 137.588 46.2918C137.658 46.3782 137.708 46.4791 137.735 46.5873C137.761 46.6954 137.763 46.8082 137.741 46.9173C137.659 47.3166 137.619 47.7234 137.622 48.131C137.618 48.9529 137.783 49.7667 138.105 50.5225C138.152 50.6364 138.169 50.7599 138.157 50.8823C138.145 51.0047 138.102 51.1222 138.034 51.2243C137.966 51.3265 137.873 51.4103 137.765 51.4683C137.657 51.5262 137.536 51.5566 137.413 51.5568ZM142.281 63.2691V65.6666C142.281 66.063 142.124 66.4432 141.844 66.7235C141.565 67.0038 141.185 67.1613 140.79 67.1613H132.79C132.397 67.1617 132.008 67.0845 131.645 66.9342C131.282 66.7839 130.952 66.5634 130.674 66.2852C130.395 66.0071 130.175 65.6768 130.024 65.3132C129.873 64.9495 129.796 64.5597 129.795 64.166V62.5218C129.797 62.323 129.876 62.1328 130.017 61.9928C130.158 61.8528 130.348 61.7743 130.547 61.7745H140.79C141.185 61.7745 141.565 61.9319 141.844 62.2122C142.124 62.4926 142.281 62.8727 142.281 63.2691ZM159.492 50.5823C159.393 50.5914 159.293 50.5796 159.198 50.5479C159.104 50.5161 159.017 50.465 158.944 50.3977C158.87 50.3305 158.812 50.2487 158.771 50.1574C158.731 50.0662 158.711 49.9675 158.711 49.8678C158.711 49.7681 158.731 49.6694 158.771 49.5782C158.812 49.487 158.87 49.4051 158.944 49.3379C159.017 49.2706 159.104 49.2195 159.198 49.1877C159.293 49.156 159.393 49.1443 159.492 49.1533C160.183 49.1869 160.875 49.0792 161.524 48.837C162.173 48.5948 162.766 48.223 163.267 47.7442C163.769 47.2654 164.168 46.6895 164.441 46.0515C164.713 45.4135 164.854 44.7267 164.854 44.0326C164.854 43.3385 164.713 42.6516 164.441 42.0136C164.168 41.3756 163.769 40.7997 163.267 40.3209C162.766 39.8421 162.173 39.4703 161.524 39.2281C160.875 38.9859 160.183 38.8783 159.492 38.9118C159.302 38.9118 159.12 38.8362 158.985 38.7016C158.851 38.5671 158.776 38.3846 158.776 38.1943C158.776 38.004 158.851 37.8216 158.985 37.687C159.12 37.5525 159.302 37.4769 159.492 37.4769C160.301 37.4742 161.105 37.6138 161.866 37.8894C162.063 37.4157 162.164 36.9078 162.164 36.3947C162.143 35.3017 161.698 34.2599 160.924 33.4891C160.151 32.7183 159.109 32.2789 158.018 32.2634C157.772 33.021 157.341 33.7053 156.765 34.2543C156.633 34.3826 156.455 34.4534 156.27 34.4516C156.174 34.4509 156.08 34.4309 155.991 34.393C155.903 34.355 155.824 34.2997 155.757 34.2304C155.692 34.1631 155.64 34.0835 155.606 33.9962C155.571 33.9088 155.554 33.8154 155.556 33.7215C155.558 33.6275 155.578 33.5348 155.615 33.4487C155.653 33.3627 155.707 33.2849 155.775 33.22C156.105 32.9115 156.367 32.5385 156.547 32.124C156.726 31.7095 156.819 31.2625 156.819 30.8106C156.819 30.3587 156.726 29.9116 156.547 29.4972C156.367 29.0827 156.105 28.7096 155.775 28.4012C155.087 27.7503 154.177 27.3877 153.231 27.3877C152.285 27.3877 151.374 27.7503 150.687 28.4012C150.62 28.4713 150.54 28.5272 150.451 28.5654C150.362 28.6037 150.266 28.6235 150.17 28.6236C150.073 28.6238 149.977 28.6043 149.888 28.5664C149.799 28.5285 149.719 28.4728 149.652 28.4029C149.585 28.333 149.533 28.2502 149.499 28.1595C149.464 28.0688 149.449 27.9722 149.453 27.8753C149.457 27.7785 149.481 27.6835 149.523 27.5961C149.565 27.5087 149.624 27.4307 149.696 27.3668C150.443 26.6525 151.39 26.185 152.411 26.0276C152.229 24.9855 151.669 24.0475 150.839 23.3937C150.009 22.7399 148.968 22.4165 147.914 22.4854C146.861 22.5544 145.87 23.0109 145.132 23.7673C144.394 24.5237 143.961 25.5267 143.916 26.5836V38.1226H152.482V33.9016C152.086 33.8037 151.739 33.5638 151.507 33.2272C151.275 32.8905 151.174 32.4805 151.224 32.0744C151.273 31.6684 151.469 31.2944 151.774 31.0231C152.08 30.7519 152.474 30.6021 152.882 30.6021C153.29 30.6021 153.684 30.7519 153.989 31.0231C154.295 31.2944 154.491 31.6684 154.54 32.0744C154.589 32.4805 154.488 32.8905 154.256 33.2272C154.025 33.5638 153.678 33.8037 153.282 33.9016V38.9297H143.916V43.922H158.09C158.188 43.5252 158.428 43.1783 158.764 42.9465C159.1 42.7148 159.509 42.6142 159.914 42.6639C160.319 42.7135 160.691 42.9099 160.962 43.216C161.232 43.5221 161.381 43.9167 161.381 44.3255C161.381 44.7343 161.232 45.129 160.962 45.4351C160.691 45.7411 160.319 45.9375 159.914 45.9872C159.509 46.0368 159.1 45.9363 158.764 45.7045C158.428 45.4728 158.188 45.1258 158.09 44.7291H143.916V50.1279H153.282V55.2218C153.676 55.3196 154.021 55.5589 154.252 55.8943C154.483 56.2298 154.583 56.6383 154.534 57.0428C154.485 57.4473 154.29 57.8197 153.985 58.0898C153.681 58.36 153.288 58.5091 152.882 58.5091C152.475 58.5091 152.083 58.36 151.778 58.0898C151.474 57.8197 151.279 57.4473 151.23 57.0428C151.18 56.6383 151.281 56.2298 151.511 55.8943C151.742 55.5589 152.087 55.3196 152.482 55.2218V50.935H143.916V64.2377C143.954 65.1964 144.356 66.1044 145.039 66.7758C145.723 67.4473 146.637 67.8314 147.595 67.8498C148.552 67.8681 149.48 67.5192 150.189 66.8744C150.898 66.2296 151.334 65.3378 151.408 64.3812C150.774 64.1094 150.194 63.7245 149.696 63.2452C149.56 63.114 149.481 62.9342 149.477 62.745C149.472 62.5557 149.543 62.3723 149.672 62.2348C149.805 62.0988 149.986 62.0206 150.176 62.0173C150.366 62.0139 150.549 62.0856 150.687 62.2169C151.504 62.9887 152.585 63.4185 153.708 63.4185C154.831 63.4185 155.912 62.9887 156.73 62.2169C157.12 61.848 157.43 61.4032 157.643 60.9098C157.855 60.4163 157.965 59.8845 157.965 59.3471C157.965 58.8097 157.855 58.2779 157.643 57.7844C157.43 57.291 157.12 56.8462 156.73 56.4773C156.613 56.3419 156.55 56.1674 156.555 55.9883C156.56 55.8092 156.632 55.6384 156.756 55.5094C156.88 55.3805 157.048 55.3028 157.226 55.2916C157.405 55.2804 157.581 55.3366 157.72 55.449C158.595 56.2812 159.165 57.385 159.337 58.5818C160.635 58.5008 161.855 57.9331 162.755 56.9915C163.655 56.0499 164.168 54.8034 164.193 53.4999C164.191 52.8145 164.048 52.1368 163.773 51.5093C163.498 50.8818 163.096 50.3179 162.594 49.8529C161.631 50.3357 160.568 50.5855 159.492 50.5823Z" fill="#CA3604"/>
</g>
<defs>
<clipPath id="clip0_1_2007">
<rect width="274.498" height="82.3493" fill="white" transform="scale(1.00183)"/>
</clipPath>
</defs>
</svg>
