<svg width="22" height="22" viewBox="0 0 22 22" fill="none" xmlns="http://www.w3.org/2000/svg">
<path d="M11.0064 3.80692C13.3513 3.80692 13.6289 3.81721 14.5511 3.85834C15.4081 3.89605 15.8709 4.04003 16.1795 4.16002C16.5874 4.31771 16.8822 4.50969 17.1873 4.81479C17.4959 5.12332 17.6844 5.41471 17.8421 5.82265C17.9621 6.13118 18.1061 6.59741 18.1438 7.45101C18.1849 8.3766 18.1952 8.65427 18.1952 10.9957C18.1952 13.3405 18.1849 13.6182 18.1438 14.5403C18.1061 15.3974 17.9621 15.8602 17.8421 16.1687C17.6844 16.5766 17.4924 16.8715 17.1873 17.1766C16.8788 17.4851 16.5874 17.6736 16.1795 17.8313C15.8709 17.9513 15.4047 18.0953 14.5511 18.133C13.6255 18.1741 13.3478 18.1844 11.0064 18.1844C8.66161 18.1844 8.38393 18.1741 7.46177 18.133C6.60474 18.0953 6.14195 17.9513 5.83342 17.8313C5.42547 17.6736 5.13065 17.4817 4.82555 17.1766C4.51702 16.868 4.32847 16.5766 4.17078 16.1687C4.0508 15.8602 3.90682 15.3939 3.86911 14.5403C3.82797 13.6148 3.81769 13.3371 3.81769 10.9957C3.81769 8.65085 3.82797 8.37317 3.86911 7.45101C3.90682 6.59398 4.0508 6.13118 4.17078 5.82265C4.32847 5.41471 4.52045 5.11989 4.82555 4.81479C5.13408 4.50626 5.42547 4.31771 5.83342 4.16002C6.14195 4.04003 6.60817 3.89605 7.46177 3.85834C8.38393 3.81721 8.66161 3.80692 11.0064 3.80692ZM11.0064 2.22656C8.6239 2.22656 8.32565 2.23685 7.38978 2.27798C6.45733 2.31912 5.81628 2.46996 5.26092 2.68593C4.68157 2.91219 4.19135 3.21043 3.70456 3.70065C3.21434 4.18744 2.91609 4.67766 2.68984 5.25359C2.47386 5.81237 2.32303 6.45 2.28189 7.38244C2.24075 8.32175 2.23047 8.61999 2.23047 11.0025C2.23047 13.3851 2.24075 13.6833 2.28189 14.6192C2.32303 15.5516 2.47386 16.1927 2.68984 16.7481C2.91609 17.3274 3.21434 17.8176 3.70456 18.3044C4.19135 18.7912 4.68157 19.0929 5.25749 19.3157C5.81628 19.5317 6.4539 19.6825 7.38635 19.7237C8.32223 19.7648 8.62047 19.7751 11.003 19.7751C13.3855 19.7751 13.6838 19.7648 14.6197 19.7237C15.5521 19.6825 16.1932 19.5317 16.7485 19.3157C17.3245 19.0929 17.8147 18.7912 18.3015 18.3044C18.7883 17.8176 19.0899 17.3274 19.3128 16.7515C19.5287 16.1927 19.6796 15.5551 19.7207 14.6226C19.7618 13.6867 19.7721 13.3885 19.7721 11.006C19.7721 8.62342 19.7618 8.32518 19.7207 7.3893C19.6796 6.45685 19.5287 5.8158 19.3128 5.26044C19.0968 4.67766 18.7985 4.18744 18.3083 3.70065C17.8215 3.21386 17.3313 2.91219 16.7554 2.68936C16.1966 2.47339 15.559 2.32255 14.6265 2.28141C13.6872 2.23685 13.389 2.22656 11.0064 2.22656Z" fill="black" fill-opacity="0.6"/>
<path d="M11.008 6.49414C8.51916 6.49414 6.5 8.5133 6.5 11.0021C6.5 13.4909 8.51916 15.5101 11.008 15.5101C13.4968 15.5101 15.5159 13.4909 15.5159 11.0021C15.5159 8.5133 13.4968 6.49414 11.008 6.49414ZM11.008 13.9263C9.39333 13.9263 8.08379 12.6168 8.08379 11.0021C8.08379 9.38747 9.39333 8.07793 11.008 8.07793C12.6226 8.07793 13.9321 9.38747 13.9321 11.0021C13.9321 12.6168 12.6226 13.9263 11.008 13.9263Z" fill="black" fill-opacity="0.6"/>
<path d="M16.7455 6.3161C16.7455 6.89888 16.2724 7.36854 15.6931 7.36854C15.1103 7.36854 14.6406 6.89546 14.6406 6.3161C14.6406 5.73332 15.1137 5.26367 15.6931 5.26367C16.2724 5.26367 16.7455 5.73675 16.7455 6.3161Z" fill="black" fill-opacity="0.6"/>
</svg>
