<svg width="22" height="22" viewBox="0 0 22 22" fill="none" xmlns="http://www.w3.org/2000/svg">
<g clip-path="url(#clip0_1_2031)">
<path d="M21.5892 7.67783C21.5892 7.67783 21.3782 6.18797 20.7282 5.53378C19.9052 4.67278 18.9851 4.66855 18.5631 4.61791C15.5411 4.39844 11.004 4.39844 11.004 4.39844H10.9955C10.9955 4.39844 6.45842 4.39844 3.43648 4.61791C3.01442 4.66855 2.09433 4.67278 1.27132 5.53378C0.621348 6.18797 0.414539 7.67783 0.414539 7.67783C0.414539 7.67783 0.195068 9.42938 0.195068 11.1767V12.8143C0.195068 14.5616 0.410318 16.3132 0.410318 16.3132C0.410318 16.3132 0.621347 17.803 1.2671 18.4572C2.09011 19.3182 3.17058 19.2887 3.65173 19.3815C5.38217 19.5461 10.9998 19.5968 10.9998 19.5968C10.9998 19.5968 15.5411 19.5883 18.5631 19.3731C18.9851 19.3224 19.9052 19.3182 20.7282 18.4572C21.3782 17.803 21.5892 16.3132 21.5892 16.3132C21.5892 16.3132 21.8045 14.5658 21.8045 12.8143V11.1767C21.8045 9.42938 21.5892 7.67783 21.5892 7.67783ZM8.76708 14.8022V8.72876L14.6041 11.776L8.76708 14.8022Z" fill="black" fill-opacity="0.6"/>
</g>
<defs>
<clipPath id="clip0_1_2031">
<rect width="22" height="22" fill="white"/>
</clipPath>
</defs>
</svg>
